<?xml version="1.0" encoding="utf-8"?>
<svg version="1.1" baseProfile="tiny" id="ghost" xmlns="http://www.w3.org/2000/svg" xmlns:xlink="http://www.w3.org/1999/xlink"
	 x="0px" y="0px" viewBox="0 0 200 200" xml:space="preserve">
<g id="default">
	<ellipse cx="100" cy="190" rx="35" ry="10" opacity="0.333" />
	<path d="M95.4,0C63.8,0,44.1,21.9,45.7,56.9C45.9,65.3,57,116,35,149.5c6.5,3.3,18.4-10.2,33-13.5
		c17.1-4,11.5,13,29,13c18.3,0,22.2-12.8,38.8-14.4c14.6-1,18.6,9.4,29.1,7.2C144.9,109.1,155.6,0,95.4,0z M72,45.5
		c0,3-2.5,5.5-5.5,5.5S61,48.5,61,45.5v-6c0-3,2.5-5.5,5.5-5.5s5.5,2.5,5.5,5.5V45.5z M89,68c-0.6,0-1-0.4-1-1c0-2.8-2.2-5-5-5
		s-5,2.2-5,5c0,0.6-0.4,1-1,1s-1-0.4-1-1c0-3.9,3.1-7,7-7s7,3.1,7,7C90,67.6,89.6,68,89,68z M106,45.5c0,3-2.5,5.5-5.5,5.5
		S95,48.5,95,45.5v-6c0-3,2.5-5.5,5.5-5.5s5.5,2.5,5.5,5.5V45.5z"/>
	<polygon points="163.5,50.7 162.2,58.3 155.7,62.5 163.3,63.8 167.5,70.3 168.8,62.7 175.3,58.5 167.7,57.2 	"/>
	<polygon points="17.3,92.9 13.4,97.6 7.3,98 12,101.9 12.5,108 16.3,103.3 22.4,102.9 17.7,99 	"/>
	<polygon points="28.1,20.3 24.3,22.8 19.9,21.7 22.4,25.5 21.2,29.9 25.1,27.4 29.5,28.6 27,24.7 	"/>
	<polygon points="137.7,11.3 139.1,9.1 141.6,8.6 139.4,7.3 138.9,4.8 137.5,6.9 135,7.4 137.2,8.8 	"/>
	<polygon points="17.5,81.9 15,82.4 17.2,83.8 17.7,86.3 19.1,84.1 21.6,83.6 19.4,82.3 18.9,79.8 	"/>
	<polygon points="164.7,101.8 162.7,100.1 163,102.7 161.4,104.6 163.9,104.3 165.9,106 165.6,103.4 167.3,101.5 	
		"/>
	<circle cx="160" cy="32" r="2"/>
	<circle cx="5" cy="71" r="3"/>
	<circle cx="185" cy="113" r="5"/>
	<circle cx="17" cy="48" r="2"/>
</g>
</svg>
